<svg width="28" height="26" viewBox="0 0 28 26" fill="none" xmlns="http://www.w3.org/2000/svg">
<path d="M12.7359 0.842252C13.04 -0.0689831 14.3289 -0.0689853 14.633 0.84225L17.1203 8.29485C17.2565 8.70301 17.6385 8.97827 18.0688 8.97827H26.0595C27.0347 8.97827 27.4331 10.2315 26.637 10.7947L20.2189 15.3345C19.859 15.5891 19.7082 16.0493 19.8478 16.4675L22.3101 23.8454C22.616 24.762 21.5729 25.5364 20.784 24.9784L14.262 20.365C13.9159 20.1202 13.4531 20.1202 13.107 20.365L6.58492 24.9784C5.79601 25.5364 4.75296 24.762 5.05887 23.8454L7.52117 16.4675C7.66073 16.0493 7.50999 15.5891 7.15008 15.3345L0.731985 10.7947C-0.0641702 10.2315 0.334267 8.97827 1.30946 8.97827H9.30012C9.73041 8.97827 10.1125 8.70301 10.2487 8.29485L12.7359 0.842252Z" fill="white" fill-opacity="0.3"/>
</svg>
