<svg width="27" height="26" viewBox="0 0 27 26" fill="none" xmlns="http://www.w3.org/2000/svg">
<path d="M12.5718 0.842252C12.876 -0.0689831 14.1649 -0.0689853 14.469 0.84225L16.9562 8.29485C17.0924 8.70301 17.4745 8.97827 17.9048 8.97827H25.8954C26.8706 8.97827 27.2691 10.2315 26.4729 10.7947L20.0548 15.3345C19.6949 15.5891 19.5442 16.0493 19.6837 16.4675L22.146 23.8454C22.4519 24.762 21.4089 25.5364 20.62 24.9784L14.0979 20.365C13.7518 20.1202 13.289 20.1202 12.9429 20.365L6.42086 24.9784C5.63195 25.5364 4.5889 24.762 4.89481 23.8454L7.35711 16.4675C7.49667 16.0493 7.34593 15.5891 6.98602 15.3345L0.567922 10.7947C-0.228233 10.2315 0.170205 8.97827 1.1454 8.97827H9.13605C9.56635 8.97827 9.9484 8.70301 10.0846 8.29485L12.5718 0.842252Z" fill="white"/>
</svg>
