<svg width="381" height="82" viewBox="0 0 381 82" fill="none" xmlns="http://www.w3.org/2000/svg">
<path d="M206.509 40.0316L213.124 48.234L219.827 40.0316H220.114V55.0253H224.92V33.4167H219.651L213.168 41.4648L206.663 33.4167H201.394V55.0694H206.2V40.0316H206.509Z" fill="white"/>
<path d="M235.906 55.7058C237.006 55.7099 238.095 55.4846 239.103 55.0443C240.074 54.6168 240.957 54.011 241.705 53.2583C242.448 52.5328 243.047 51.6722 243.469 50.7226C243.901 49.7516 244.12 48.6987 244.108 47.6357C244.118 46.5657 243.9 45.5059 243.469 44.5267C243.042 43.5736 242.444 42.7067 241.705 41.9689C240.948 41.2377 240.067 40.6478 239.103 40.227C238.09 39.8038 237.003 39.5864 235.906 39.5876C234.822 39.5863 233.75 39.8038 232.753 40.227C231.776 40.637 230.886 41.2281 230.129 41.9689C229.389 42.7067 228.792 43.5736 228.365 44.5267C227.926 45.5044 227.701 46.5642 227.703 47.6357C227.699 48.7002 227.925 49.7531 228.365 50.7226C228.786 51.6722 229.385 52.5328 230.129 53.2583C230.879 54.0131 231.77 54.6125 232.753 55.0223C233.743 55.4704 234.818 55.7033 235.906 55.7058ZM235.906 51.8251C235.403 51.8129 234.909 51.7004 234.45 51.4943C233.977 51.2876 233.556 50.9789 233.216 50.5903C232.869 50.196 232.586 49.7495 232.378 49.2673C232.126 48.7664 231.983 48.2178 231.959 47.6577C231.956 47.0897 232.068 46.5271 232.289 46.004C232.508 45.5274 232.79 45.0824 233.127 44.681C233.479 44.3056 233.898 43.9991 234.362 43.777C234.818 43.5678 235.315 43.4624 235.817 43.4683C236.32 43.4601 236.817 43.5656 237.273 43.777C237.74 43.9934 238.16 44.3007 238.507 44.681C238.866 45.0755 239.163 45.5214 239.389 46.004C239.604 46.5285 239.709 47.0912 239.698 47.6577C239.709 48.2099 239.604 48.7583 239.389 49.2673C239.174 49.7559 238.876 50.2035 238.507 50.5903C238.166 50.9773 237.745 51.2857 237.273 51.4943C236.842 51.6914 236.378 51.8037 235.906 51.8251Z" fill="white"/>
<path d="M253.878 55.7137C254.876 55.7266 255.869 55.5624 256.81 55.2286C257.611 54.9467 258.357 54.529 259.015 53.9938C259.643 53.5095 260.175 52.9111 260.581 52.2299C260.972 51.5819 261.255 50.8744 261.419 50.1351L257.009 49.5178C256.772 50.1443 256.377 50.6988 255.862 51.1274C255.275 51.6131 254.529 51.8644 253.767 51.833C253.3 51.8458 252.837 51.7396 252.422 51.5243C251.987 51.3165 251.597 51.0242 251.276 50.6643C250.926 50.2929 250.662 49.8486 250.504 49.3634C250.29 48.8233 250.186 48.2463 250.195 47.6656C250.183 47.0775 250.288 46.4927 250.504 45.9457C250.673 45.4586 250.935 45.0091 251.276 44.6228C251.61 44.2833 251.998 44.0004 252.422 43.7849C252.837 43.5696 253.3 43.4634 253.767 43.4762C254.436 43.4489 255.095 43.6427 255.642 44.0274C256.074 44.3894 256.434 44.831 256.7 45.3283L261.11 44.711C260.952 44.0454 260.668 43.4165 260.272 42.8588C259.863 42.2382 259.357 41.6873 258.773 41.2271C258.1 40.7244 257.357 40.3232 256.568 40.0364C255.684 39.7539 254.761 39.6125 253.834 39.6175C252.793 39.6187 251.764 39.8365 250.813 40.2569C249.882 40.6795 249.038 41.27 248.321 41.9989C247.594 42.7421 247.005 43.608 246.579 44.5566C246.148 45.5358 245.93 46.5956 245.94 47.6656C245.928 48.7286 246.147 49.7816 246.579 50.7525C247.017 51.6922 247.622 52.544 248.365 53.2662C249.075 54.0086 249.921 54.6075 250.857 55.0302C251.802 55.4755 252.833 55.7088 253.878 55.7137Z" fill="white"/>
<path d="M274.444 47.6634V47.3547C274.72 47.2829 274.981 47.1636 275.216 47.0019C275.43 46.8408 275.61 46.6384 275.745 46.4066C275.949 46.141 276.057 45.815 276.054 45.4805V44.8631C276.051 44.7204 276.077 44.5786 276.13 44.4461C276.183 44.3137 276.263 44.1934 276.364 44.0924C276.465 43.9915 276.585 43.912 276.717 43.8588C276.85 43.8056 276.992 43.7797 277.134 43.7827H277.752V40.0343H276.826C275.484 39.918 274.142 40.2516 273.011 40.9824C272.638 41.3015 272.342 41.7019 272.147 42.1529C271.952 42.6039 271.863 43.0935 271.887 43.5842V44.4442C271.909 44.6136 271.892 44.7858 271.836 44.9474C271.781 45.109 271.688 45.2554 271.566 45.3751C271.444 45.4949 271.296 45.5847 271.134 45.6374C270.971 45.6901 270.799 45.7043 270.63 45.6789H267.94V40.2327H263.53V55.0721H267.94V49.5156H270.894C271.061 49.493 271.23 49.5097 271.389 49.5641C271.548 49.6185 271.692 49.7093 271.81 49.8292C271.928 49.9491 272.016 50.0947 272.067 50.2546C272.119 50.4145 272.133 50.5843 272.107 50.7503V51.8308C272.085 52.3256 272.18 52.8185 272.383 53.2703C272.586 53.7221 272.891 54.1201 273.276 54.4326C274.394 55.1759 275.731 55.5179 277.068 55.4028H277.994V51.5221H277.377C277.234 51.5251 277.092 51.4992 276.96 51.446C276.827 51.3927 276.707 51.3133 276.606 51.2123C276.505 51.1114 276.426 50.9911 276.373 50.8586C276.319 50.7262 276.293 50.5844 276.296 50.4417V49.6699C276.316 49.3294 276.232 48.9909 276.054 48.6997C275.856 48.4709 275.634 48.2639 275.392 48.0823C275.099 47.8965 274.779 47.7553 274.444 47.6634Z" fill="white"/>
<path d="M287.456 55.7058C288.556 55.708 289.644 55.4828 290.653 55.0443C291.624 54.6169 292.507 54.0111 293.255 53.2583C293.992 52.5268 294.589 51.6676 295.019 50.7226C295.442 49.7484 295.659 48.6976 295.658 47.6357C295.657 46.5668 295.44 45.5092 295.019 44.5267C294.584 43.578 293.987 42.7125 293.255 41.9689C292.498 41.2378 291.617 40.6478 290.653 40.227C289.64 39.806 288.553 39.5887 287.456 39.5876C286.372 39.5845 285.3 39.8021 284.303 40.227C283.326 40.6371 282.436 41.2281 281.679 41.9689C280.933 42.701 280.334 43.5692 279.915 44.5267C279.477 45.5045 279.251 46.5642 279.253 47.6357C279.25 48.7002 279.475 49.7531 279.915 50.7226C280.329 51.6766 280.928 52.5386 281.679 53.2583C282.429 54.0131 283.321 54.6125 284.303 55.0223C285.293 55.4723 286.368 55.7054 287.456 55.7058ZM287.456 51.8251C286.954 51.8129 286.459 51.7005 286.001 51.4944C285.564 51.2788 285.18 50.9702 284.876 50.5903C284.529 50.196 284.246 49.7496 284.038 49.2673C283.817 48.7598 283.704 48.2115 283.707 47.6577C283.704 47.0898 283.817 46.5271 284.038 46.004C284.257 45.5274 284.539 45.0824 284.876 44.681C285.224 44.3007 285.643 43.9934 286.111 43.777C286.567 43.5678 287.064 43.4624 287.566 43.4683C288.068 43.4601 288.566 43.5657 289.021 43.777C289.489 43.9934 289.909 44.3007 290.256 44.681C290.615 45.0755 290.912 45.5214 291.138 46.004C291.342 46.5315 291.447 47.0922 291.447 47.6577C291.445 48.2088 291.341 48.7548 291.138 49.2673C290.923 49.7559 290.624 50.2035 290.256 50.5903C289.915 50.9773 289.493 51.2858 289.021 51.4944C288.53 51.718 287.996 51.8309 287.456 51.8251Z" fill="white"/>
<path d="M302.518 43.6242H305.297C305.439 43.6212 305.581 43.6471 305.714 43.7004C305.846 43.7536 305.966 43.8331 306.067 43.934C306.168 44.0349 306.248 44.1552 306.301 44.2877C306.354 44.4201 306.38 44.562 306.377 44.7047C306.384 44.848 306.361 44.9912 306.307 45.1244C306.254 45.2576 306.172 45.3777 306.068 45.4764C305.969 45.5794 305.849 45.6602 305.716 45.7134C305.582 45.7666 305.44 45.7911 305.297 45.7851H302.518V43.6242ZM306.377 51.6723H302.518V48.85H306.377C306.561 48.8392 306.746 48.8691 306.917 48.9377C307.089 49.0063 307.243 49.1119 307.369 49.2469C307.501 49.3762 307.606 49.5306 307.678 49.701C307.749 49.8714 307.786 50.0543 307.786 50.2391C307.786 50.4239 307.749 50.6069 307.678 50.7772C307.606 50.9476 307.501 51.102 307.369 51.2313C307.239 51.3754 307.078 51.4894 306.899 51.5655C306.721 51.6417 306.527 51.6781 306.333 51.6723H306.377ZM305.297 40.2286H298.108V55.068H306.156C307.037 55.0836 307.914 54.9646 308.758 54.7152C309.437 54.4912 310.076 54.164 310.655 53.745C311.124 53.37 311.514 52.9053 311.801 52.3779C312.055 51.9266 312.192 51.4185 312.198 50.9006C312.224 50.2011 312.039 49.51 311.669 48.9161C311.343 48.468 310.948 48.0737 310.5 47.7475C309.98 47.4138 309.406 47.1749 308.802 47.0419V46.645C309.157 46.4979 309.49 46.3052 309.795 46.0717C310.063 45.8381 310.3 45.5714 310.5 45.278C310.731 44.893 310.839 44.4469 310.809 43.9991C310.799 43.5124 310.671 43.0354 310.434 42.61C310.162 42.1287 309.795 41.7084 309.354 41.3752C308.833 40.9704 308.243 40.6641 307.612 40.4711C306.842 40.2716 306.047 40.1898 305.252 40.2286H305.297Z" fill="white"/>
<path d="M321.678 55.7136C322.662 55.7232 323.64 55.559 324.567 55.2285C325.366 54.9447 326.112 54.5272 326.771 53.9938C327.393 53.5085 327.916 52.91 328.315 52.2298C328.716 51.5865 328.999 50.8773 329.153 50.1351L324.743 49.5177C324.506 50.1442 324.111 50.6987 323.596 51.1273C322.981 51.6397 322.19 51.8927 321.391 51.8329C320.931 51.8439 320.476 51.7377 320.068 51.5242C319.63 51.311 319.234 51.0195 318.9 50.6643C318.557 50.2916 318.3 49.8472 318.15 49.3634C317.929 48.8248 317.816 48.2478 317.819 47.6655C317.813 47.0759 317.926 46.4911 318.15 45.9457C318.311 45.4598 318.566 45.0103 318.9 44.6227C319.246 44.2876 319.64 44.0053 320.068 43.7848C320.476 43.5713 320.931 43.4651 321.391 43.4761C322.066 43.4505 322.732 43.6439 323.288 44.0274C323.809 44.3558 324.247 44.8012 324.567 45.3283L328.976 44.7109C328.8 44.052 328.517 43.4264 328.139 42.8587C327.721 42.2376 327.208 41.6868 326.617 41.2271C325.946 40.7224 325.202 40.3211 324.412 40.0364C323.521 39.7551 322.591 39.6137 321.656 39.6174C320.622 39.6165 319.6 39.8344 318.657 40.2569C317.717 40.6734 316.864 41.2645 316.144 41.9988C315.425 42.749 314.837 43.6133 314.402 44.5565C313.981 45.5391 313.763 46.5967 313.762 47.6655C313.761 48.7275 313.979 49.7783 314.402 50.7525C314.84 51.6859 315.437 52.5364 316.166 53.2661C316.879 54.0139 317.733 54.6133 318.679 55.0301C319.616 55.4771 320.64 55.7105 321.678 55.7136Z" fill="white"/>
<path d="M342.206 47.664V47.3553C342.484 47.2922 342.747 47.1721 342.977 47.0025C343.192 46.8414 343.372 46.639 343.506 46.4072C343.694 46.136 343.787 45.8105 343.771 45.4811V44.8637C343.761 44.5787 343.864 44.3013 344.058 44.092C344.161 43.9872 344.285 43.9055 344.421 43.8523C344.558 43.7991 344.705 43.7756 344.851 43.7833H345.469V40.0349H344.521C343.186 39.9167 341.85 40.2507 340.728 40.983C340.352 41.301 340.053 41.7006 339.854 42.1515C339.656 42.6023 339.562 43.0925 339.582 43.5848V44.4448C339.608 44.613 339.594 44.785 339.542 44.9468C339.489 45.1087 339.399 45.2558 339.278 45.3762C339.158 45.4965 339.011 45.5867 338.849 45.6395C338.687 45.6922 338.515 45.7059 338.347 45.6796H335.701V40.2333H331.291V55.0727H335.701V49.5162H338.656C338.824 49.4898 338.996 49.5035 339.158 49.5563C339.319 49.609 339.467 49.6992 339.587 49.8196C339.707 49.94 339.798 50.0871 339.85 50.2489C339.903 50.4108 339.917 50.5828 339.89 50.751V51.8314C339.869 52.3239 339.962 52.8147 340.161 53.2658C340.36 53.7169 340.659 54.1163 341.037 54.4332C342.163 55.1765 343.507 55.5184 344.851 55.4034H345.778V51.5227H345.16C345.021 51.5256 344.882 51.4996 344.753 51.4465C344.624 51.3934 344.508 51.3142 344.411 51.214C344.305 51.1156 344.22 50.996 344.163 50.8631C344.107 50.7302 344.078 50.5869 344.08 50.4423V49.6705C344.093 49.3277 344.001 48.989 343.815 48.7003C343.617 48.4715 343.396 48.2645 343.154 48.083C342.865 47.8889 342.544 47.7471 342.206 47.664Z" fill="white"/>
<path d="M347.985 40.2285V55.0678H352.395L357.643 47.1961H357.973V55.0678H362.383V40.2285H357.973L352.637 48.1222H352.329V40.2285H347.985Z" fill="white"/>
<path d="M372.747 37.8186C373.345 37.8145 373.937 37.6947 374.489 37.4658C374.996 37.2619 375.454 36.9539 375.834 36.5617C376.232 36.1644 376.547 35.6923 376.76 35.1726C376.974 34.6325 377.079 34.0555 377.069 33.4748H374.291C374.301 33.6808 374.269 33.8868 374.197 34.0801C374.125 34.2734 374.014 34.4501 373.872 34.5993C373.721 34.7397 373.544 34.8489 373.351 34.9208C373.159 34.9927 372.953 35.0258 372.747 35.0183C372.333 35.0288 371.93 34.8787 371.623 34.5993C371.338 34.2947 371.18 33.8922 371.182 33.4748H368.404C368.368 34.082 368.458 34.6901 368.668 35.2608C368.858 35.7822 369.159 36.2561 369.55 36.6499C369.952 37.0364 370.423 37.3431 370.939 37.554C371.517 37.7674 372.133 37.8576 372.747 37.8186ZM365.493 40.0235V55.0613H369.903L375.283 47.1896H375.592V55.0613H380.002V40.222H375.592L370.146 48.1157H369.837V40.222L365.493 40.0235Z" fill="white"/>
<path d="M201.089 66.0036V80.865H205.499V69.8402H210.835V80.865H215.245V66.0036H201.089Z" fill="white"/>
<path d="M225.854 81.4863C226.944 81.4851 228.023 81.2678 229.029 80.8469C229.997 80.4237 230.879 79.8257 231.631 79.0829C232.377 78.3591 232.976 77.4981 233.395 76.5472C233.831 75.5726 234.056 74.5169 234.056 73.4492C234.056 72.3815 233.831 71.3258 233.395 70.3513C232.976 69.387 232.378 68.5114 231.631 67.7715C230.877 67.0424 229.995 66.4593 229.029 66.0516C228.027 65.6158 226.947 65.3909 225.854 65.3909C224.761 65.3909 223.681 65.6158 222.679 66.0516C221.706 66.4591 220.817 67.0421 220.055 67.7715C219.322 68.523 218.726 69.3959 218.291 70.3513C217.869 71.3297 217.652 72.3838 217.652 73.4492C217.652 74.5146 217.869 75.5688 218.291 76.5472C218.725 77.4896 219.322 78.348 220.055 79.0829C220.816 79.8241 221.705 80.4217 222.679 80.8469C223.684 81.2701 224.764 81.4875 225.854 81.4863ZM225.854 77.6276C225.349 77.6205 224.851 77.5 224.399 77.2748C223.916 77.085 223.485 76.7826 223.142 76.3928C222.797 75.9928 222.522 75.5383 222.326 75.0478C222.093 74.5432 221.973 73.994 221.973 73.4382C221.98 72.8761 222.1 72.3211 222.326 71.8065C222.537 71.3238 222.811 70.8715 223.142 70.4615C223.509 70.0993 223.933 69.8012 224.399 69.5795C224.854 69.3682 225.352 69.2626 225.854 69.2708C226.356 69.2649 226.853 69.3703 227.309 69.5795C227.769 69.8 228.187 70.0984 228.544 70.4615C228.896 70.8646 229.186 71.3179 229.404 71.8065C229.616 72.3239 229.721 72.879 229.713 73.4382C229.728 73.9908 229.622 74.54 229.404 75.0478C229.202 75.5447 228.91 76.0005 228.544 76.3928C228.197 76.7684 227.777 77.0686 227.309 77.2748C226.856 77.4979 226.359 77.6183 225.854 77.6276Z" fill="white"/>
<path d="M243.8 81.4784C244.796 81.4909 245.788 81.3343 246.732 81.0154C247.53 80.727 248.275 80.3099 248.937 79.7806C249.553 79.2892 250.075 78.6918 250.481 78.0167C250.874 77.3697 251.157 76.6618 251.319 75.922L246.909 75.2825C246.686 75.9104 246.297 76.4665 245.784 76.8921C245.166 77.4024 244.379 77.6621 243.579 77.6198C243.12 77.6194 242.668 77.5138 242.256 77.3111C241.82 77.0953 241.43 76.7956 241.11 76.4291C240.748 76.0667 240.482 75.6195 240.338 75.1282C240.102 74.5941 239.989 74.0139 240.007 73.4303C239.991 72.847 240.104 72.2673 240.338 71.7325C240.493 71.2391 240.756 70.7869 241.11 70.4096C241.438 70.0632 241.827 69.7793 242.256 69.5717C242.664 69.3582 243.119 69.252 243.579 69.263C244.249 69.2253 244.911 69.42 245.453 69.8142C245.898 70.1645 246.259 70.6088 246.512 71.1151L250.922 70.4978C250.745 69.8389 250.462 69.2132 250.084 68.6456C249.661 68.0221 249.149 67.4648 248.562 66.9919C247.153 65.9135 245.419 65.346 243.645 65.3823C242.609 65.3785 241.585 65.6044 240.647 66.0437C239.707 66.4528 238.854 67.0364 238.133 67.7636C237.414 68.5217 236.826 69.3934 236.391 70.3434C235.969 71.3218 235.752 72.376 235.752 73.4414C235.752 74.5068 235.969 75.5609 236.391 76.5393C236.826 77.4758 237.415 78.3328 238.133 79.075C238.852 79.816 239.705 80.4145 240.647 80.839C241.637 81.2833 242.714 81.5017 243.8 81.4784Z" fill="white"/>
<path d="M252.004 66.0036V69.8843H256.657V80.9091H261.067V69.8843H265.719V66.0036H252.004Z" fill="white"/>
<path d="M278.262 71.8968V74.9838C278.021 75.4696 277.717 75.9218 277.358 76.3288C277.046 76.6682 276.69 76.9648 276.3 77.2108C275.867 77.4916 275.36 77.6375 274.844 77.6297C274.365 77.6385 273.89 77.5424 273.452 77.3482C273.014 77.1539 272.624 76.8662 272.309 76.5052C271.571 75.6611 271.198 74.5588 271.272 73.4403C271.211 72.3168 271.582 71.2125 272.309 70.3534C272.632 70.006 273.025 69.7304 273.462 69.5443C273.899 69.3582 274.37 69.2658 274.844 69.2729C275.358 69.2573 275.865 69.3955 276.3 69.6698C276.686 69.9377 277.041 70.2483 277.358 70.5959C277.707 70.9947 278.01 71.431 278.262 71.8968ZM266.951 73.4403C266.931 74.5425 267.133 75.6374 267.546 76.6595C267.912 77.5917 268.442 78.4506 269.111 79.1952C269.738 79.8894 270.485 80.4646 271.316 80.8931C272.103 81.288 272.972 81.492 273.852 81.4884C274.484 81.5083 275.113 81.4034 275.704 81.1797C276.166 80.9873 276.597 80.7272 276.983 80.408C277.343 80.1065 277.642 79.74 277.865 79.3275H278.262V80.871H282.672V66.0096H278.262V67.5751H277.931C277.703 67.1596 277.405 66.7867 277.049 66.4726C276.656 66.1764 276.226 65.9318 275.77 65.745C275.162 65.4969 274.509 65.3768 273.852 65.3922C272.958 65.3922 272.076 65.5958 271.272 65.9875C270.437 66.4008 269.689 66.9695 269.067 67.6633C268.398 68.416 267.867 69.2821 267.502 70.2211C267.074 71.2401 266.857 72.3351 266.862 73.4403H266.951Z" fill="white"/>
<path d="M290.234 71.5799L294.247 76.5411L298.282 71.5799H298.591V80.8628H303.001V66.0014H298.37L294.247 70.8964L290.234 65.9352H285.582V80.7966H289.991V71.5799H290.234Z" fill="white"/>
<path d="M316.693 71.8958V74.9827C316.466 75.4721 316.169 75.9253 315.811 76.3277C315.498 76.6671 315.142 76.9637 314.752 77.2097C314.319 77.4906 313.813 77.6364 313.297 77.6287C312.818 77.6375 312.343 77.5414 311.905 77.3471C311.466 77.1529 311.076 76.8651 310.761 76.5041C310.399 76.0851 310.123 75.5987 309.949 75.0727C309.775 74.5468 309.706 73.9917 309.747 73.4392C309.68 72.3187 310.042 71.2147 310.761 70.3523C311.085 70.005 311.478 69.7293 311.914 69.5432C312.351 69.3571 312.822 69.2647 313.297 69.2719C313.811 69.2562 314.317 69.3944 314.752 69.6688C315.139 69.9366 315.494 70.2473 315.811 70.5948C316.159 70.9888 316.456 71.4261 316.693 71.8958ZM305.403 73.4392C305.394 74.5405 305.596 75.6333 305.998 76.6585C306.364 77.5907 306.894 78.4496 307.564 79.1942C308.186 79.8932 308.934 80.4691 309.769 80.892C310.569 81.2938 311.454 81.4979 312.349 81.4873C312.98 81.5072 313.61 81.4023 314.201 81.1786C314.663 80.9862 315.094 80.7261 315.48 80.4069C315.846 80.106 316.152 79.7396 316.384 79.3265H316.67V80.8699H321.08V66.0085H316.67V67.5741H316.406C316.169 67.1581 315.863 66.7853 315.502 66.4716C315.108 66.1753 314.679 65.9308 314.223 65.7439C313.635 65.5047 313.005 65.3847 312.371 65.3911C311.477 65.3911 310.595 65.5947 309.791 65.9865C308.953 66.3939 308.203 66.9635 307.586 67.6622C306.916 68.4149 306.386 69.2811 306.021 70.22C305.611 71.2437 305.401 72.3366 305.403 73.4392Z" fill="white"/>
<path d="M322.89 66.0036V69.8843H327.543V80.9091H331.953V69.8843H336.583V66.0036H322.89Z" fill="white"/>
<path d="M47.2694 33.4091H0V80.6784H47.2694V33.4091Z" fill="#F62E46"/>
<path d="M80.6831 -0.000152588L47.2695 33.4134L80.6831 66.8469L114.117 33.4134L80.6831 -0.000152588Z" fill="#F62E46"/>
<path d="M161.487 33.4091H114.118V80.6784H161.487V33.4091Z" fill="#F62E46"/>
</svg>
