<svg width="45" height="42" viewBox="0 0 45 42" fill="none" xmlns="http://www.w3.org/2000/svg">
<path d="M20.2033 1.94078C20.9568 -0.351851 24.2 -0.351851 24.9534 1.94078L28.711 13.3747C28.8459 13.7851 29.2291 14.0625 29.661 14.0625H41.7487C44.1774 14.0625 45.1797 17.176 43.2072 18.593L33.4625 25.5928C33.108 25.8475 32.9596 26.3026 33.0959 26.7172L36.8317 38.085C37.587 40.3832 34.963 42.3073 32.9982 40.8959L23.1618 33.8302C22.8132 33.5798 22.3436 33.5798 21.995 33.8302L12.1586 40.8959C10.1938 42.3073 7.56973 40.3832 8.32503 38.085L12.0609 26.7172C12.1972 26.3026 12.0488 25.8475 11.6943 25.5928L1.94955 18.593C-0.0229859 17.176 0.979376 14.0625 3.40807 14.0625H15.4957C15.9277 14.0625 16.3109 13.7851 16.4457 13.3747L20.2033 1.94078Z" fill="#DDB0B6"/>
</svg>
