<svg width="45" height="42" viewBox="0 0 45 42" fill="none" xmlns="http://www.w3.org/2000/svg">
<path d="M20.6089 1.82409C21.3689 -0.454561 24.5919 -0.454556 25.352 1.82409L29.206 13.3789C29.3422 13.7872 29.7243 14.0625 30.1546 14.0625H42.4585C44.8961 14.0625 45.8925 17.1949 43.9028 18.6031L34.0282 25.5919C33.6685 25.8465 33.5179 26.3065 33.6573 26.7246L37.4606 38.1274C38.2251 40.4192 35.6168 42.3547 33.6448 40.959L23.5581 33.82C23.2119 33.575 22.7489 33.575 22.4027 33.82L12.316 40.959C10.344 42.3547 7.73577 40.4192 8.50018 38.1274L12.3035 26.7246C12.4429 26.3065 12.2923 25.8465 11.9326 25.5919L2.05804 18.6031C0.0683293 17.1949 1.06467 14.0625 3.50231 14.0625H15.8062C16.2366 14.0625 16.6187 13.7872 16.7548 13.3789L20.6089 1.82409Z" fill="#F62E46"/>
</svg>
