<svg width="95" height="95" viewBox="0 0 95 95" fill="none" xmlns="http://www.w3.org/2000/svg">
<path d="M92.7126 47.5C92.7126 58.3683 88.8925 68.3213 82.5103 76.1007C81.1836 77.7252 79.7653 79.2582 78.2098 80.6539C77.2033 81.6149 76.1282 82.5072 75.0302 83.3538C67.4128 89.2341 57.851 92.7119 47.4887 92.7119C37.1263 92.7119 27.5645 89.2341 19.9471 83.3309C18.8491 82.4843 17.774 81.592 16.7675 80.6539C15.212 79.2353 13.7937 77.7023 12.467 76.0778C6.10773 68.2984 2.2876 58.3454 2.2876 47.5C2.2876 22.5373 22.532 2.28806 47.4887 2.28806C72.4453 2.28806 92.7126 22.5373 92.7126 47.5Z" stroke="white" stroke-width="2" stroke-miterlimit="10"/>
<path d="M47.4885 53.7006C57.2668 53.7006 65.1937 45.7718 65.1937 35.9911C65.1937 26.2104 57.2668 18.2816 47.4885 18.2816C37.7101 18.2816 29.7832 26.2104 29.7832 35.9911C29.7832 45.7718 37.7101 53.7006 47.4885 53.7006Z" fill="white"/>
<path d="M78.2099 80.6539C77.2034 81.6149 76.1283 82.5072 75.0303 83.3538C67.4129 89.2341 57.8511 92.712 47.4887 92.712C37.1264 92.712 27.5646 89.2341 19.9472 83.3309C18.8492 82.4843 17.7741 81.592 16.7676 80.6539C21.2511 68.0238 33.3062 58.986 47.4887 58.986C61.6713 58.986 73.7264 68.0238 78.2099 80.6539Z" fill="white"/>
</svg>
