<svg width="23" height="22" viewBox="0 0 23 22" fill="none" xmlns="http://www.w3.org/2000/svg">
<path d="M10.5514 0.842247C10.8555 -0.0689878 12.1445 -0.068985 12.4486 0.84225L14.4588 6.86572C14.5951 7.27389 14.9771 7.54915 15.4074 7.54915H21.8546C22.8298 7.54915 23.2282 8.8024 22.4321 9.36555L17.2627 13.0221C16.9028 13.2767 16.752 13.7369 16.8916 14.1551L18.8769 20.1039C19.1828 21.0205 18.1398 21.7949 17.3509 21.2369L12.0775 17.5068C11.7314 17.262 11.2686 17.262 10.9225 17.5068L5.64913 21.2369C4.86022 21.7949 3.81717 21.0205 4.12308 20.1039L6.10843 14.1551C6.24799 13.7369 6.09725 13.2767 5.73734 13.0221L0.567921 9.36555C-0.228235 8.8024 0.170205 7.54915 1.1454 7.54915H7.5926C8.0229 7.54915 8.40495 7.27389 8.54117 6.86572L10.5514 0.842247Z" fill="#F62E46"/>
</svg>
