<svg width="17" height="14" viewBox="0 0 17 14" fill="none" xmlns="http://www.w3.org/2000/svg">
<g clip-path="url(#clip0_0_16)">
<path d="M15.84 2.2H1.1C0.49 2.2 0 1.71 0 1.1C0 0.49 0.49 0 1.1 0H15.84C16.45 0 16.94 0.49 16.94 1.1C16.94 1.71 16.45 2.2 15.84 2.2Z" fill="white"/>
<path d="M15.84 7.72H1.1C0.49 7.72 0 7.23 0 6.62C0 6.01 0.49 5.52 1.1 5.52H15.84C16.45 5.52 16.94 6.01 16.94 6.62C16.94 7.23 16.45 7.72 15.84 7.72Z" fill="white"/>
<path d="M8.47 13.23H1.1C0.49 13.23 0 12.74 0 12.13C0 11.52 0.49 11.03 1.1 11.03H8.47C9.08 11.03 9.57 11.52 9.57 12.13C9.57 12.74 9.08 13.23 8.47 13.23Z" fill="white"/>
</g>
<defs>
<clipPath id="clip0_0_16">
<rect width="16.94" height="13.23" fill="white"/>
</clipPath>
</defs>
</svg>
