<svg width="19" height="17" viewBox="0 0 19 17" fill="none" xmlns="http://www.w3.org/2000/svg">
<g clip-path="url(#clip0_0_22)">
<path d="M14.7201 16.94H3.71006C2.37006 16.94 1.17006 16.25 0.500059 15.09C-0.169941 13.93 -0.169941 12.55 0.500059 11.39L6.01006 1.85C6.68006 0.69 7.88006 0 9.22006 0C10.5601 0 11.7601 0.69 12.4301 1.85L17.9301 11.38C18.6001 12.54 18.6001 13.92 17.9301 15.08C17.2601 16.24 16.0601 16.93 14.7201 16.93V16.94ZM9.21006 2.2C8.67006 2.2 8.18006 2.48 7.91006 2.95L2.41006 12.48C2.14006 12.95 2.14006 13.51 2.41006 13.98C2.68006 14.45 3.17006 14.73 3.71006 14.73H14.7201C15.2601 14.73 15.7501 14.45 16.0201 13.98C16.2901 13.51 16.2901 12.95 16.0201 12.48L10.5201 2.95C10.2501 2.48 9.76006 2.2 9.22006 2.2H9.21006Z" fill="white"/>
<path d="M9.20999 13.33C9.8175 13.33 10.31 12.8375 10.31 12.23C10.31 11.6225 9.8175 11.13 9.20999 11.13C8.60247 11.13 8.10999 11.6225 8.10999 12.23C8.10999 12.8375 8.60247 13.33 9.20999 13.33Z" fill="white"/>
<path d="M9.20995 5.60999C9.83995 5.60999 10.3499 6.11999 10.3499 6.74999V8.77998C10.3499 9.40999 9.83995 9.91999 9.20995 9.91999C8.57995 9.91999 8.06995 9.40999 8.06995 8.77998V6.74999C8.06995 6.11999 8.57995 5.60999 9.20995 5.60999Z" fill="white"/>
</g>
<defs>
<clipPath id="clip0_0_22">
<rect width="18.43" height="16.94" fill="white"/>
</clipPath>
</defs>
</svg>
