<svg width="22" height="18" viewBox="0 0 22 18" fill="none" xmlns="http://www.w3.org/2000/svg">
<path d="M15.4434 12.6C15.4434 12.6 15.3934 12.6 15.3734 12.6L2.56341 11.82C2.06341 11.79 1.65341 11.43 1.55341 10.94L0.0234056 3.37C-0.0465944 3.05 0.0434056 2.71 0.253406 2.46C0.463406 2.2 0.773406 2.06 1.10341 2.06H11.0834C11.6934 2.06 12.1834 2.55 12.1834 3.16C12.1834 3.77 11.6934 4.26 11.0834 4.26H2.44341L3.53341 9.68L14.5134 10.35L16.0634 0.92C16.1534 0.39 16.6134 0 17.1534 0H20.8634C21.4734 0 21.9634 0.49 21.9634 1.1C21.9634 1.71 21.4734 2.2 20.8634 2.2H18.0934L16.5334 11.69C16.4434 12.22 15.9834 12.61 15.4534 12.61L15.4434 12.6Z" fill="white"/>
<path d="M4.50346 17.42C5.44786 17.42 6.21346 16.6544 6.21346 15.71C6.21346 14.7656 5.44786 14 4.50346 14C3.55905 14 2.79346 14.7656 2.79346 15.71C2.79346 16.6544 3.55905 17.42 4.50346 17.42Z" fill="white"/>
<path d="M13.6934 17.42C14.6378 17.42 15.4034 16.6544 15.4034 15.71C15.4034 14.7656 14.6378 14 13.6934 14C12.749 14 11.9834 14.7656 11.9834 15.71C11.9834 16.6544 12.749 17.42 13.6934 17.42Z" fill="white"/>
</svg>
